<svg xmlns="http://www.w3.org/2000/svg" xml:space="preserve" viewBox="0 0 1024 1024"><path d="M545.3 178c-3.3-1.9-5-5.3-2.9-8.7 45.8-75.5 71.4-117.9 76.8-127.1 8-13.7 14.1-22.4 18.3-26.2 14.1-12.5 33.5-19 52-14.6 3.4.8 9.5 3.7 18.4 8.6q89.25 49.5 161.1 91.5c7.8 4.6 14.1 10.9 18.8 19 8.3 14.2 10.9 34.9 3.6 49.1-1.7 3.4-4.1 7.7-7 12.8q-57.3 98.7-79.8 137.7c-3.5 6.1-8.5 3.7-13.7.7-135-78.7-216.8-126.2-245.6-142.8m-25.2 29c2.2-3.1 5.1-3.1 8.3-1.2 28.5 16.4 111.3 64.9 248.5 145.3q7.35 4.35 3.6 12c-34 70.2-61.8 139-81.1 214.2-3 11.8-5.6 28.3-8.1 37.9-2.6 9.7-6.8 13.5-16.4 18.4-31.9 16-54.7 27.8-68.5 35.1C538 705 469.2 745.4 408.2 789c-19.1 13.7-36.6 27.2-52.3 40.5-31 26.2-60.7 55.7-80.2 90.5-3.6 6.5-6.4 13.5-8.2 21q-2.4 10.05 2.7 20.1c9.9 19.3 49.7 21.3 67.7 20.4 21.6-1.1 44.9-3.4 70.2-6.9 84.4-11.6 154.6-22.5 228.9-25.2 26-1 52.5.4 79.5 4.1 20 2.7 37.7 7.6 53.2 14.6 9.5 4.3 29.1 17.9 25.2 30.2q-1.95 6-8.1 4.8c-28.7-5.8-57.8-8.7-87.4-8.8q-46.5 0-54.6.3c-71.8 3.1-124.1 10.7-214.8 21.6-30.7 3.7-61.2 6.2-91.2 7.6-17.7.8-35.9-.2-54.6-2.9-32.8-4.9-67.5-22.6-72.9-59.2-4.6-31.3 6.7-64.2 23-92.2 17-29.2 30.4-58.1 40.2-86.8 10.2-29.6 18.4-59.8 24.6-90.8 17-84 23.6-168.5 19.7-253.5-.3-7.2.4-13.8 5.8-18.8 1.3-1.1 9.9-8.6 25.9-22.5 63-54.6 119.3-120.1 169.6-190.1M301.2 833c.7-.5 1.1-1 1.4-1.3 4.5-5.2 11.3-14.1 20.5-26.7 15.7-21.7 33.4-47.1 53.1-76 38.1-55.9 78.2-115.7 120.5-179.4 2.8-4.2 4.6-5.2 9.8-5.2 9.2 0 17.2-2.2 23.9-6.4 37.3-23.4 17.3-78.6-25.8-73.7-17.9 2-31.8 16.2-34.5 33.6-1.5 9.6.4 18.8 5.8 27.8 1.7 2.9 1.8 5.7.2 8.2-6.7 10.7-42.3 67.7-106.8 171.2-33.2 53.3-55.8 90-76.4 119.4-2.5 3.6 1.5 6.9 4.6 8.7 1.1.8 2.6.7 3.7-.2" style="fill:#0e100c"/></svg>